<svg width="14" height="24" viewBox="0 0 14 24" fill="none" xmlns="http://www.w3.org/2000/svg">
<path fill-rule="evenodd" clip-rule="evenodd" d="M1.1304 0.880477C1.04891 0.961757 0.984265 1.05831 0.940154 1.16462C0.896043 1.27092 0.873337 1.38488 0.873337 1.49998C0.873337 1.61507 0.896043 1.72903 0.940154 1.83534C0.984265 1.94164 1.04891 2.0382 1.1304 2.11948L11.0127 12L1.1304 21.8805C0.966099 22.0448 0.873796 22.2676 0.873796 22.5C0.873796 22.7323 0.966099 22.9552 1.1304 23.1195C1.2947 23.2838 1.51754 23.3761 1.7499 23.3761C1.98226 23.3761 2.2051 23.2838 2.3694 23.1195L12.8694 12.6195C12.9509 12.5382 13.0155 12.4416 13.0596 12.3353C13.1038 12.229 13.1265 12.1151 13.1265 12C13.1265 11.8849 13.1038 11.7709 13.0596 11.6646C13.0155 11.5583 12.9509 11.4618 12.8694 11.3805L2.3694 0.880477C2.28812 0.798992 2.19156 0.734342 2.08526 0.69023C1.97895 0.646119 1.86499 0.623413 1.7499 0.623413C1.63481 0.623413 1.52085 0.646119 1.41454 0.69023C1.30824 0.734342 1.21168 0.798992 1.1304 0.880477Z" fill="#6984F0"/>
</svg>
