<svg width="14" height="14" viewBox="0 0 14 14" fill="none" xmlns="http://www.w3.org/2000/svg">
<path fill-rule="evenodd" clip-rule="evenodd" d="M0.619385 6.69039C0.619385 2.99539 3.61477 0 7.30977 0C11.0048 0 14.0002 2.99539 14.0002 6.69039C14.0002 10.3854 11.0048 13.3808 7.30977 13.3808C3.61477 13.3808 0.619385 10.3854 0.619385 6.69039ZM5.80046 6.53421H8.54718C8.61108 6.53421 8.65084 6.47554 8.68848 6.41999L8.68848 6.41998C8.69631 6.40843 8.70404 6.39702 8.71188 6.38629L11.2152 2.96212C11.2589 2.89881 11.2152 2.81743 11.1452 2.81743H8.59967C8.55593 2.81743 8.51219 2.83551 8.48595 2.87168L5.91418 6.47091C5.88793 6.50708 5.8442 6.53421 5.80046 6.53421ZM5.6144 6.02749C5.58577 6.06635 5.52795 6.06713 5.49828 6.02905L3.10199 2.95395C3.05783 2.89402 3.10199 2.81696 3.17265 2.81696H5.74285C5.78702 2.81696 5.83118 2.83408 5.85768 2.86833L6.90026 4.23238C6.92618 4.26629 6.92647 4.31328 6.90097 4.34751C6.86426 4.39678 6.79127 4.39911 6.75149 4.35228L6.08731 3.57044L6.71045 4.4806C6.73395 4.51492 6.73304 4.56039 6.70819 4.59375C6.67074 4.64402 6.59623 4.6463 6.55577 4.59841L5.79585 3.69887L6.53493 4.72476C6.55757 4.75618 6.55684 4.79873 6.53315 4.82936C6.49913 4.87332 6.43326 4.87479 6.39732 4.83239L5.53088 3.81018L6.36158 4.96884C6.38232 4.99776 6.38182 5.03681 6.36035 5.06519C6.32901 5.10662 6.26737 5.1084 6.23369 5.06884L5.25708 3.92149L6.17936 5.21296C6.19821 5.23935 6.19795 5.27488 6.17871 5.301C6.15006 5.33988 6.09265 5.34193 6.06131 5.30518L4.98327 4.04137L5.99699 5.45715C6.01403 5.48096 6.01405 5.51297 5.99704 5.5368C5.97113 5.57308 5.918 5.57532 5.88914 5.54134L4.70947 4.15268L5.81161 5.69692C5.82847 5.72054 5.82786 5.75241 5.8101 5.77537C5.78454 5.8084 5.73507 5.80955 5.708 5.77775L4.42684 4.27255L5.6151 5.94203C5.63336 5.96767 5.63307 6.00214 5.6144 6.02749ZM8.63419 7.01501C8.60803 6.98014 8.57316 6.96271 8.53828 6.96271H5.80037C5.84397 6.96271 5.88757 6.98014 5.91373 7.01501L8.49468 10.4842C8.52084 10.5191 8.56444 10.5365 8.60803 10.5365H11.1454C11.2151 10.5365 11.2587 10.4581 11.2151 10.3971L8.63419 7.01501ZM6.71797 8.88164L6.07856 9.78326L6.75121 9.00075C6.79126 8.95416 6.86418 8.95671 6.90088 9.00598C6.92648 9.04033 6.92619 9.0875 6.90017 9.12154L5.85775 10.4854C5.83125 10.5196 5.78709 10.5367 5.74293 10.5367H3.17273C3.10207 10.5367 3.05791 10.4597 3.10207 10.3997L5.48962 7.3248C5.51922 7.28668 5.57705 7.28741 5.60568 7.32626C5.62434 7.35157 5.62462 7.38601 5.60639 7.41162L4.41808 9.08115L5.69931 7.56765C5.72632 7.53574 5.77587 7.53684 5.80145 7.5699C5.81915 7.59279 5.81981 7.62456 5.80306 7.64816L4.70072 9.20102L5.88039 7.81236C5.90925 7.77838 5.96237 7.78062 5.98828 7.8169C6.0053 7.84073 6.00528 7.87274 5.98823 7.89655L4.97452 9.31233L6.0697 8.05612C6.10144 8.01972 6.15874 8.02207 6.18739 8.06095C6.20677 8.08725 6.20703 8.12303 6.18805 8.14962L5.26599 9.44077L6.2426 8.29342C6.27628 8.25386 6.33792 8.25564 6.36926 8.29707C6.39073 8.32545 6.39123 8.3645 6.37049 8.39342L5.53979 9.55208L6.40623 8.52987C6.44217 8.48747 6.50804 8.48894 6.54206 8.53291C6.56575 8.56353 6.56648 8.60609 6.54385 8.6375L5.80476 9.66339L6.56518 8.76326C6.60538 8.71567 6.67943 8.71794 6.71664 8.76789C6.74169 8.80151 6.74223 8.84744 6.71797 8.88164Z" fill="white"/>
</svg>
