<svg width="8" height="11" viewBox="0 0 8 11" fill="none" xmlns="http://www.w3.org/2000/svg">
<path d="M0 5.07472H3.62542C3.7273 5.07472 3.78267 4.95986 3.8428 4.87626L7.14692 0.28226C7.20465 0.19733 7.14692 0.0881348 7.05455 0.0881348H3.69469C3.63696 0.0881348 3.57923 0.1124 3.54459 0.160931L0.150095 4.98979C0.115458 5.03832 0.0577296 5.07472 0 5.07472Z" fill="white"/>
<path d="M3.74037 5.72022C3.70585 5.67344 3.65981 5.65005 3.61378 5.65005H0C0.0575442 5.65005 0.115091 5.67344 0.149617 5.72022L3.55624 10.3747C3.59076 10.4215 3.6483 10.4448 3.70585 10.4448H7.05492C7.14699 10.4448 7.20454 10.3396 7.14699 10.2577L3.74037 5.72022Z" fill="white"/>
</svg>
