<svg width="8" height="11" viewBox="0 0 8 11" fill="none" xmlns="http://www.w3.org/2000/svg">
<path d="M8 5.07472H4.37458C4.2727 5.07472 4.21733 4.95986 4.1572 4.87626L0.853081 0.28226C0.795352 0.19733 0.853084 0.0881348 0.945451 0.0881348H4.30531C4.36304 0.0881348 4.42077 0.1124 4.45541 0.160931L7.8499 4.98979C7.88454 5.03832 7.94227 5.07472 8 5.07472Z" fill="white"/>
<path d="M4.25963 5.72022C4.29415 5.67344 4.34019 5.65005 4.38622 5.65005H8C7.94246 5.65005 7.88491 5.67344 7.85038 5.72022L4.44376 10.3747C4.40924 10.4215 4.3517 10.4448 4.29415 10.4448H0.945077C0.853006 10.4448 0.795464 10.3396 0.853008 10.2577L4.25963 5.72022Z" fill="white"/>
</svg>
