<?xml version="1.0" encoding="utf-8"?><svg viewBox="0 0 159 96" xmlns="http://www.w3.org/2000/svg" xmlns:xlink="http://www.w3.org/1999/xlink"><style>:root>svg{display:none}:root>svg:target{display:block}</style><svg viewBox="0 0 14 24" id="Arrow--prev" xmlns="http://www.w3.org/2000/svg"><path fill-rule="evenodd" clip-rule="evenodd" d="M12.87.88a.874.874 0 010 1.24L2.987 12l9.883 9.88a.876.876 0 11-1.24 1.24l-10.5-10.5a.875.875 0 010-1.24L11.63.88a.875.875 0 011.24 0z"/></svg><svg viewBox="0 0 14 24" id="Arrow-next" xmlns="http://www.w3.org/2000/svg"><path fill-rule="evenodd" clip-rule="evenodd" d="M1.13.88a.875.875 0 000 1.24L11.013 12 1.13 21.88a.876.876 0 101.24 1.24l10.5-10.5a.875.875 0 000-1.24L2.37.88a.875.875 0 00-1.24 0z"/></svg><svg viewBox="0 0 19 19" id="Close" xmlns="http://www.w3.org/2000/svg"><path d="M10.793 9.5l7.599-7.6A.917.917 0 0017.099.608L9.5 8.207 1.9.599A.92.92 0 10.6 1.9l7.608 7.6-7.609 7.599a.917.917 0 101.293 1.292L9.5 10.792l7.6 7.6a.917.917 0 001.292-1.293l-7.6-7.6z"/></svg><svg viewBox="0 0 14 14" id="Subtract" xmlns="http://www.w3.org/2000/svg"><path fill-rule="evenodd" clip-rule="evenodd" d="M.62 6.69a6.69 6.69 0 1113.38 0 6.69 6.69 0 01-13.38 0zm5.18-.156h2.747c.064 0 .104-.058.141-.114l.024-.034 2.503-3.424c.044-.063 0-.145-.07-.145H8.6a.14.14 0 00-.114.055L5.914 6.47a.148.148 0 01-.114.063zm-.186-.507a.073.073 0 01-.116.002L3.102 2.954a.085.085 0 01.07-.137h2.57c.045 0 .09.017.116.051L6.9 4.232a.096.096 0 01-.149.12l-.664-.782.623.91a.097.097 0 01-.154.118l-.76-.9.739 1.027a.087.087 0 01-.138.107L5.531 3.81l.83 1.159a.081.081 0 01-.127.1L5.257 3.92l.922 1.292a.075.075 0 01-.118.092L4.983 4.041l1.014 1.416a.068.068 0 01-.108.084L4.71 4.153l1.103 1.544a.066.066 0 01-.104.08L4.427 4.274l1.188 1.669a.073.073 0 010 .085zm3.02.988a.12.12 0 00-.096-.052H5.8a.14.14 0 01.114.052l2.58 3.47a.14.14 0 00.114.052h2.537c.07 0 .114-.079.07-.14l-2.58-3.382zM6.718 8.882l-.64.901.673-.782a.096.096 0 01.15.12l-1.043 1.364a.144.144 0 01-.115.052h-2.57c-.07 0-.115-.077-.07-.137L5.49 7.325a.073.073 0 01.116.087l-1.188 1.67L5.7 7.567a.066.066 0 01.104.08L4.701 9.201l1.18-1.389a.068.068 0 01.107.085L4.975 9.312 6.07 8.056a.076.076 0 01.118.094l-.922 1.29.977-1.147a.081.081 0 01.127.1l-.83 1.16.866-1.023a.087.087 0 01.138.107l-.74 1.026.761-.9a.097.097 0 01.153.119z"/></svg><svg viewBox="0 0 13 10" id="arrow" xmlns="http://www.w3.org/2000/svg"><path d="M0 4.75h11.5m0 0L7 .75m4.5 4L7 9.25"/></svg><svg viewBox="0 0 10 9" id="arrow-back" xmlns="http://www.w3.org/2000/svg"><path fill-rule="evenodd" clip-rule="evenodd" d="M4.25.32L.5 4.07v.53l3.75 3.75.53-.53-3.11-3.11H9.5v-.75H1.67L4.781.85 4.25.32z"/></svg><svg viewBox="0 0 68 68" id="best-1" xmlns="http://www.w3.org/2000/svg"><g clip-path="url(#aga)"><path d="M66.867 1.133h-17a1.133 1.133 0 00-.802 1.935l4.866 4.865-2.412 2.412A29.12 29.12 0 0034 4.532C17.75 4.51 4.558 17.663 4.534 33.913a29.421 29.421 0 001.16 8.22L.388 46.746a1.134 1.134 0 00-.127 1.58l5.667 6.8a1.134 1.134 0 001.623.122l3.35-2.977c10.041 12.79 28.55 15.017 41.339 4.976 12.074-9.48 14.838-26.645 6.351-39.436l2.608-2.607 4.865 4.865A1.134 1.134 0 0068 19.267v-17c0-.626-.507-1.134-1.133-1.134zM34 6.8a27.39 27.39 0 015.666.61v2.223a.567.567 0 01-.566.567h-4.534a2.836 2.836 0 00-2.833 2.833V15.3a.567.567 0 01-.567.567h-4.533a.567.567 0 01-.566-.567 2.836 2.836 0 00-2.834-2.833H22.1a2.836 2.836 0 00-2.834 2.833v3.4a.568.568 0 01-.566.567h-7.546A27.195 27.195 0 0134 6.8zM7.983 26.067H15.3c.313 0 .566.253.566.566v1.134a.567.567 0 01-.566.566h-1.134a2.836 2.836 0 00-2.833 2.834.567.567 0 01-.566.566H6.902c.157-1.922.52-3.821 1.081-5.666zM10.767 34a2.836 2.836 0 002.833-2.833c0-.313.254-.567.566-.567H15.3a2.836 2.836 0 002.833-2.833v-1.134A2.836 2.836 0 0015.3 23.8H8.792c.314-.774.663-1.53 1.045-2.267H18.7a2.836 2.836 0 002.833-2.833v-3.4c0-.313.254-.566.567-.567h1.133c.313 0 .566.254.567.567a2.836 2.836 0 002.833 2.833h4.534A2.836 2.836 0 0034 15.3v-2.267c0-.313.254-.566.566-.566H39.1a2.836 2.836 0 002.833-2.834v-1.64a26.906 26.906 0 017.966 3.972L32.867 28.997 28 24.133a1.132 1.132 0 00-1.545-.054L7.59 40.484A27.236 27.236 0 016.8 34h3.967zm9.8 23.625a27.256 27.256 0 01-7.967-6.864l7.38-6.561h6.085c.626 0 1.133.508 1.134 1.133a3.416 3.416 0 003.4 3.4c.305 0 .598.125.808.347.21.207.328.491.325.787v2.266c0 .626-.508 1.133-1.133 1.134h-4.534a5.666 5.666 0 00-5.499 4.358zm13.548 3.572a5.676 5.676 0 015.551-4.53h3.4a3.4 3.4 0 100-6.8h-2.833a.567.567 0 010-1.134h16.613a27.194 27.194 0 01-22.731 12.464zm24.047-14.73H40.233a2.833 2.833 0 100 5.666h2.834a1.133 1.133 0 010 2.267h-3.4a7.94 7.94 0 00-7.828 6.702 27.179 27.179 0 01-9.15-2.39 3.394 3.394 0 013.378-3.179H30.6a3.404 3.404 0 003.4-3.4v-2.266a3.416 3.416 0 00-3.4-3.4 1.11 1.11 0 01-.808-.347 1.09 1.09 0 01-.326-.787 3.404 3.404 0 00-3.4-3.4h-3.535l4.623-4.11 4.911 4.912c.443.442 1.16.442 1.602 0l13.269-13.268h4.63a1.7 1.7 0 010 3.4H47.6a3.417 3.417 0 00-3.4 3.4 3.404 3.404 0 003.4 3.4h13.002a26.987 26.987 0 01-2.44 6.8zm1.611-21.17A27.01 27.01 0 0160.98 37.4H47.6a1.134 1.134 0 01-1.133-1.133 1.106 1.106 0 01.346-.807c.207-.211.491-.33.787-.327h3.966a3.967 3.967 0 000-7.933h-2.364l2.267-2.267h8.166c.044.122.097.24.138.363zm-1.065-2.63h-4.972l3.22-3.22a27.224 27.224 0 011.752 3.22zm7.025-6.136l-3.732-3.732a1.133 1.133 0 00-1.602 0L32.867 40.33 28 35.465a1.133 1.133 0 00-1.554-.046L6.921 52.776l-4.206-5.049 24.43-21.245 4.92 4.92a1.133 1.133 0 001.603 0L56.334 8.733a1.133 1.133 0 000-1.602L52.602 3.4h13.131v13.13zm-3.4 45.802h-2.267V64.6h2.267v-2.267zm5.667 3.4h-2.267V68H68v-2.267zm-2.266-9.066h-2.267v2.266h2.267v-2.266zm-9.067 9.066H54.4V68h2.267v-2.267zM68 49.867h-2.267v2.266H68v-2.266zM2.267 0H0v2.267h2.267V0zm5.667 2.267H5.667v2.266h2.267V2.267zM3.4 6.8H1.134v2.267H3.4V6.8zM14.733 0h-2.266v2.267h2.266V0zM7.934 9.067H5.667v2.266h2.267V9.067zM2.267 13.6H0v2.267h2.267V13.6z"/></g><defs><clipPath id="aga"><path d="M0 0h68v68H0z"/></clipPath></defs></svg><svg viewBox="0 0 80 68" id="best-2" xmlns="http://www.w3.org/2000/svg"><path d="M16.25 29.806H3.75a1.25 1.25 0 01-.884-2.132 1.25 1.25 0 01.884-.366h12.5a1.25 1.25 0 01.884 2.132 1.25 1.25 0 01-.884.366zm0 9.991H3.75a1.25 1.25 0 01-.884-2.132 1.25 1.25 0 01.884-.366h12.5a1.25 1.25 0 01.884 2.132 1.25 1.25 0 01-.884.366zm0-4.996H10a1.25 1.25 0 01-.884-2.132 1.25 1.25 0 01.884-.366h6.25a1.25 1.25 0 01.884 2.132 1.25 1.25 0 01-.884.366zM7.5 47.29H5a1.25 1.25 0 01-.884-2.131A1.25 1.25 0 015 44.793h2.5a1.25 1.25 0 01.884 2.132 1.25 1.25 0 01-.884.366zm3.75 7.494H10a1.25 1.25 0 01-.884-2.132 1.25 1.25 0 01.884-.366h1.25a1.25 1.25 0 01.884 2.132 1.25 1.25 0 01-.884.366zm6.25-7.494h-6.25a1.25 1.25 0 01-.884-2.131 1.25 1.25 0 01.884-.366h6.25a1.25 1.25 0 01.884 2.132 1.25 1.25 0 01-.884.366z"/><path d="M48.75 4.828H20a1.25 1.25 0 00-.884 2.132c.235.234.553.365.884.365h17.046a28.728 28.728 0 00-12.41 10.592 28.691 28.691 0 000 31.271 28.728 28.728 0 0012.41 10.591H17.5a1.25 1.25 0 00-.884 2.132c.235.234.553.366.884.366h31.25a28.763 28.763 0 0020.33-8.413 28.712 28.712 0 008.42-20.312 28.712 28.712 0 00-8.42-20.311 28.763 28.763 0 00-20.33-8.413zm0 54.951a26.267 26.267 0 01-14.584-4.42 26.232 26.232 0 01-9.668-11.77 26.206 26.206 0 015.69-28.582 26.271 26.271 0 0128.607-5.685 26.245 26.245 0 0111.781 9.66A26.21 26.21 0 0175 33.551a26.244 26.244 0 01-7.697 18.537 26.29 26.29 0 01-18.553 7.69z"/><path d="M48.75 9.823c-4.697 0-9.29 1.392-13.195 3.999a23.734 23.734 0 00-8.747 10.65 23.71 23.71 0 005.148 25.86 23.77 23.77 0 0025.883 5.144 23.745 23.745 0 0010.658-8.74A23.715 23.715 0 0072.5 33.551a23.744 23.744 0 00-6.964-16.771A23.787 23.787 0 0048.75 9.823zm11.681 41.446l-1.223-2.123a1.25 1.25 0 10-2.166 1.249l1.22 2.11A21.066 21.066 0 0150 54.72v-2.434a1.248 1.248 0 00-2.134-.883 1.248 1.248 0 00-.366.883v2.434a21.065 21.065 0 01-8.261-2.21l1.219-2.11a1.246 1.246 0 00-.454-1.713 1.253 1.253 0 00-1.712.464l-1.223 2.123a21.418 21.418 0 01-6.052-6.046l2.125-1.223a1.25 1.25 0 00-1.25-2.163L29.78 43.06a21.016 21.016 0 01-2.216-8.26H30a1.25 1.25 0 00.884-2.131 1.25 1.25 0 00-.884-.366h-2.436a21.017 21.017 0 012.211-8.254l2.113 1.218a1.25 1.25 0 101.25-2.163l-2.125-1.223a21.419 21.419 0 016.05-6.046l1.224 2.123a1.25 1.25 0 002.166-1.249l-1.22-2.11a21.066 21.066 0 018.267-2.215v2.434a1.248 1.248 0 002.134.884c.234-.235.366-.552.366-.883v-2.435c2.876.164 5.688.916 8.261 2.21l-1.219 2.11a1.247 1.247 0 00.918 1.87 1.249 1.249 0 001.248-.62l1.223-2.124a21.42 21.42 0 016.052 6.046l-2.126 1.223a1.25 1.25 0 101.25 2.163l2.113-1.218a21.02 21.02 0 012.216 8.26H67.5a1.25 1.25 0 00-.884 2.131c.234.234.552.366.884.366h2.436a21.018 21.018 0 01-2.211 8.254l-2.112-1.218A1.25 1.25 0 1064.362 44l2.124 1.223a21.418 21.418 0 01-6.056 6.046z"/><path d="M51.592 35.97A3.704 3.704 0 0050 30.035v-11.47a1.248 1.248 0 00-2.134-.883 1.248 1.248 0 00-.366.883v11.47a3.74 3.74 0 00-2.444 4.16 3.737 3.737 0 004.376 3.035l3.236 5.599a1.25 1.25 0 002.165-1.249l-3.241-5.61zM47.5 33.552a1.248 1.248 0 011.494-1.225 1.251 1.251 0 01.911 1.703 1.25 1.25 0 01-2.405-.478zM13.75 14.819h10a1.25 1.25 0 00.884-2.132 1.25 1.25 0 00-.884-.366h-10a1.25 1.25 0 00-.884 2.132c.235.234.553.366.884.366zM20 22.312a1.25 1.25 0 00.884-2.132 1.25 1.25 0 00-.884-.366h-6.25a1.25 1.25 0 00-.884 2.132c.235.235.553.366.884.366H20zm3.75 31.223a1.248 1.248 0 00-1.25-1.249H15a1.25 1.25 0 00-.884 2.132c.235.234.553.366.884.366h7.5a1.25 1.25 0 001.25-1.249zM10 22.312H7.5a1.25 1.25 0 01-.884-2.132 1.25 1.25 0 01.884-.366H10a1.25 1.25 0 01.884 2.132 1.25 1.25 0 01-.884.366z"/></svg><svg viewBox="0 0 68 68" id="best-3" xmlns="http://www.w3.org/2000/svg"><path d="M53.691 41.89c-1.334-2.782-6.108-6.644-10.72-10.375-2.574-2.08-5.005-4.046-6.554-5.596a1.416 1.416 0 00-1.482-.332c-.955.346-1.544.612-2.009.82-.708.317-.946.424-1.901.52a1.42 1.42 0 00-1.037.621c-2.003 2.995-4.077 2.74-5.463 2.275-.442-.147-.521-.337-.564-.518-.297-1.244 1.196-4.14 3.131-6.075 4.604-4.607 6.979-5.76 11.994-3.519 5.689 2.544 11.39 4.536 11.446 4.556a1.415 1.415 0 001.805-.873 1.42 1.42 0 00-.873-1.804c-.056-.02-5.644-1.973-11.22-4.469-6.496-2.904-10.06-.991-15.152 4.103-1.938 1.938-4.57 5.86-3.89 8.735.291 1.224 1.153 2.13 2.433 2.553 3.21 1.06 6.14.045 8.322-2.85.9-.14 1.39-.343 2.127-.675.267-.119.578-.257.992-.425 1.62 1.522 3.808 3.293 6.112 5.154 4.165 3.369 8.888 7.188 9.95 9.398.525 1.091-.04 1.802-.422 2.128-.56.482-1.328.635-1.745.343a1.416 1.416 0 00-2.213 1.318c.096.9-.728 1.416-1.085 1.595-.907.459-1.853.38-2.207.05a1.416 1.416 0 00-2.377.904c-.086.93-.774 1.822-1.672 2.17-.434.165-1.063.264-1.627-.252a1.433 1.433 0 00-1.294-.328 1.415 1.415 0 00-.995.892c-.054.142-.175.482-1.502.482-.943 0-2.64-.637-3.47-1.187-.995-.655-7.231-5.307-12.617-9.818-.757-.637-2.066-2.003-3.222-3.21-1.025-1.07-1.963-2.043-2.445-2.45a1.41 1.41 0 00-1.997.166 1.418 1.418 0 00.167 1.998c.44.371 1.29 1.27 2.227 2.247 1.264 1.32 2.57 2.686 3.448 3.422 5.276 4.418 11.617 9.186 12.88 10.016 1.043.686 3.29 1.65 5.03 1.65 1.396 0 2.47-.32 3.215-.947.998.388 2.131.391 3.222-.034 1.29-.499 2.349-1.505 2.95-2.723 1.116.238 2.394.071 3.555-.513 1.136-.572 1.958-1.447 2.366-2.47 1.128.06 2.29-.34 3.25-1.165 1.626-1.39 2.074-3.555 1.133-5.508z"/><path d="M28.334 18.416h-12.75a1.417 1.417 0 000 2.834h12.75a1.417 1.417 0 000-2.834zm29.508 20.46a1.413 1.413 0 00-1.966-.386l-4.142 2.783a1.417 1.417 0 001.58 2.351l4.143-2.782a1.418 1.418 0 00.385-1.966zm-8.794 6.76c-1.015-.799-5.55-5.443-8.356-8.367a1.413 1.413 0 00-2.003-.042 1.415 1.415 0 00-.042 2.003c.728.76 7.15 7.455 8.644 8.633.258.204.57.303.876.303a1.416 1.416 0 00.881-2.53zm-5.661 2.842c-1.697-1.357-5.961-5.888-6.925-6.936a1.419 1.419 0 00-2.003-.085 1.419 1.419 0 00-.085 2.003c.051.054 5.14 5.548 7.242 7.23a1.424 1.424 0 001.992-.22 1.42 1.42 0 00-.22-1.992zm-5.638 2.853c-2.02-1.703-6.154-6.103-6.962-6.967a1.416 1.416 0 10-2.07 1.935c1.16 1.244 5.116 5.437 7.204 7.2a1.413 1.413 0 001.998-.17 1.419 1.419 0 00-.17-1.998z"/><path d="M16.558 15.971c-2.428-2.3-12.138-3.046-15.056-3.219A1.416 1.416 0 000 14.166v25.5c0 .782.635 1.417 1.417 1.417h8.5c.612 0 1.156-.394 1.345-.978.207-.634 5.09-15.617 5.732-22.984a1.41 1.41 0 00-.436-1.15zM8.883 38.25h-6.05V15.685c4.553.36 9.466 1.142 11.252 2.009-.751 6.205-4.149 17.23-5.203 20.556zm57.7-22.667c-11.124 0-17.295 2.847-17.552 2.966a1.41 1.41 0 00-.757.882c-.113.388-.057.804.156 1.15 1.75 2.82 7.233 18.476 8.287 22.295.17.615.729 1.04 1.366 1.04h8.5c.782 0 1.417-.634 1.417-1.416V17c0-.785-.635-1.417-1.417-1.417zm-1.417 25.5h-6.023C57.8 36.708 53.833 25.3 51.62 20.587c2.162-.734 6.806-1.995 13.546-2.154v22.65z"/></svg><svg viewBox="0 0 54 54" id="best-4" xmlns="http://www.w3.org/2000/svg"><path d="M39.296 23.549H19.378v-9.113c0-1.34.53-2.598 1.49-3.54a4.948 4.948 0 013.57-1.421c2.683.05 4.866 2.324 4.866 5.067v.751a4.742 4.742 0 004.736 4.737 4.742 4.742 0 004.737-4.737v-.857c0-3.877-1.52-7.518-4.283-10.253A14.33 14.33 0 0024.2 0C16.317.077 9.905 6.628 9.905 14.603v8.946h-.519a4.675 4.675 0 00-4.67 4.67V49.33A4.675 4.675 0 009.387 54h29.91a4.675 4.675 0 004.67-4.67V28.219a4.675 4.675 0 00-4.67-4.67zm-26.684-8.946c0-6.497 5.21-11.834 11.613-11.896h.117c3.106 0 6.032 1.204 8.248 3.399a11.645 11.645 0 013.48 8.33v.857c0 1.12-.91 2.03-2.03 2.03-1.12 0-2.03-.91-2.03-2.03v-.751c0-4.208-3.374-7.695-7.521-7.774a7.603 7.603 0 00-5.517 2.196 7.611 7.611 0 00-2.3 5.472v9.113h-4.06v-8.946zM41.258 49.33c0 1.082-.88 1.962-1.962 1.962H9.386a1.965 1.965 0 01-1.962-1.962V28.218c0-1.082.88-1.962 1.962-1.962h29.91c1.082 0 1.962.88 1.962 1.962v21.113z"/><path d="M24.341 28.917a6.052 6.052 0 00-6.045 6.045c0 1.712.73 3.338 1.985 4.477v7.84c0 .746.606 1.352 1.353 1.352h5.414c.747 0 1.353-.605 1.353-1.353V39.44a6.057 6.057 0 001.985-4.477 6.052 6.052 0 00-6.045-6.045zm1.925 8.772a1.354 1.354 0 00-.572 1.105v7.13h-2.706v-7.13c0-.44-.213-.851-.572-1.105a3.347 3.347 0 01-1.413-2.727 3.342 3.342 0 013.338-3.338 3.342 3.342 0 013.339 3.338c0 1.081-.53 2.1-1.414 2.727zm22.341-14.872l-4.727-2.73a1.353 1.353 0 00-1.353 2.345l4.727 2.729a1.352 1.352 0 101.353-2.344zM43.205 17.2c.229 0 .462-.06.675-.182l4.727-2.73a1.353 1.353 0 00-1.353-2.344l-4.727 2.73a1.353 1.353 0 00.678 2.525z"/></svg><svg viewBox="0 0 16 16" id="check" xmlns="http://www.w3.org/2000/svg"><path d="M7.795 0a7.795 7.795 0 107.795 7.795A7.804 7.804 0 007.795 0z" fill-opacity=".104"/><path d="M12.295 5.327L7.848 11.36a.657.657 0 01-.929.122L3.744 8.944a.65.65 0 11.812-1.015l2.648 2.119 4.045-5.49a.65.65 0 111.046.769z"/></svg><svg viewBox="0 0 26 32" id="doc" xmlns="http://www.w3.org/2000/svg"><path d="M6.719 19.855h12.544M2.5 1.008A1.537 1.537 0 001 2.545v26.98a1.537 1.537 0 001.498 1.538h20.986a1.537 1.537 0 001.537-1.537V8.686h-6.15a1.537 1.537 0 01-1.498-1.537V1l-14.874.008zm14.804 0l7.68 7.679-7.68-7.68zM6.72 15.205h12.544H6.72zm0 9.3h12.544H6.72z"/></svg><svg viewBox="0 0 8 11" id="fot-arrow_next" xmlns="http://www.w3.org/2000/svg"><path d="M8 5.075H4.375c-.102 0-.158-.115-.218-.199L.853.282C.795.197.853.088.945.088h3.36a.18.18 0 01.15.073L7.85 4.99a.195.195 0 00.15.085zm-3.74.645a.158.158 0 01.126-.07H8a.184.184 0 00-.15.07l-3.406 4.655a.184.184 0 01-.15.07H.945a.117.117 0 01-.092-.187L4.26 5.72z"/></svg><svg viewBox="0 0 8 11" id="fot-arrow_prev" xmlns="http://www.w3.org/2000/svg"><path d="M0 5.075h3.625c.102 0 .158-.115.218-.199L7.147.282c.058-.085 0-.194-.092-.194h-3.36a.183.183 0 00-.15.073L.15 4.99a.195.195 0 01-.15.085zm3.74.645a.158.158 0 00-.126-.07H0c.058 0 .115.023.15.07l3.406 4.655c.035.046.092.07.15.07h3.349c.092 0 .15-.105.092-.187L3.74 5.72z"/></svg><svg viewBox="0 0 159 96" id="logo" xmlns="http://www.w3.org/2000/svg"><path d="M108.065 38.536c-.13-7.467-5.68-14.2-13.392-14.37-4.466-.093-4.456 6.83 0 6.926 1.74.037 3.144.73 4.525 2.175 1.256 1.302 1.931 3.33 1.963 5.264.078 4.457 7.01 4.466 6.927 0m21.644.005A41.069 41.069 0 00119.48 11.43 33.82 33.82 0 0094.673 0c-4.47-.032-4.465 6.9 0 6.927 3.624.03 7.202.817 10.506 2.309a27.846 27.846 0 019.143 6.788 33.053 33.053 0 016.049 9.665 34.5 34.5 0 012.434 12.824c0 4.465 6.927 4.465 6.927 0"/><path d="M94.622 19.044c4.618.042 8.663 2.037 11.969 5.541 3.39 3.658 5.205 8.848 5.237 13.951.032 4.46 6.955 4.46 6.927 0-.116-13.424-10.067-26.276-24.147-26.414-4.465-.05-4.46 6.876 0 6.927M7.719 58.051a9.813 9.813 0 001.565 5.675 5.74 5.74 0 005.043 2.637 5.854 5.854 0 005.08-2.6 10.016 10.016 0 001.565-5.726c0-2.367-.497-4.314-1.491-5.841a5.8 5.8 0 00-5.154-2.71 5.739 5.739 0 00-5.116 2.71c-.995 1.524-1.492 3.47-1.492 5.841v.014zM1 57.973c0-4.156 1.182-7.56 3.514-10.192 2.406-2.77 5.69-4.128 9.813-4.128 4.124 0 7.444 1.385 9.85 4.087 2.332 2.636 3.514 6.035 3.514 10.233 0 4.197-1.182 7.564-3.514 10.196-2.443 2.71-5.726 4.05-9.85 4.05s-7.388-1.386-9.813-4.087C2.182 65.537 1 62.138 1 57.972zm35.858 14.472c-3.436 0-5.805-.951-7.066-2.826a3.09 3.09 0 01-.572-1.755c0-1.87.956-2.77 2.9-2.77.572 0 1.339.309 2.369.923a5.476 5.476 0 002.826.923c1.145 0 1.718-.42 1.718-1.26 0-.531-.804-1.146-2.406-1.847-2.212-.993-3.695-1.755-4.429-2.31-1.602-1.181-2.406-2.673-2.406-4.39a6.051 6.051 0 012.37-4.928 8.266 8.266 0 015.342-1.755 10.916 10.916 0 013.694.61 5.745 5.745 0 013.03 2.045c.327.472.512 1.029.53 1.603a2.465 2.465 0 01-.724 1.847 2.494 2.494 0 01-1.847.766 6.624 6.624 0 01-2.397-.798 6.763 6.763 0 00-2.558-.726c-.952 0-1.413.342-1.413 1.072 0 .572.383.993 1.186 1.297 1.718.647 2.979 1.183 3.695 1.524a11.544 11.544 0 013.232 2.254 4.932 4.932 0 011.26 3.477 6.22 6.22 0 01-2.636 5.19 9.315 9.315 0 01-5.726 1.848m17.4-14.639l5.232-5.421c1.071-1.108 2.138-1.681 3.168-1.681a2.896 2.896 0 011.847.651 2.249 2.249 0 01.767 1.718c0 1.03-.536 2.022-1.566 2.978l-4.156 3.856 5.768 6.76a4.692 4.692 0 011.224 3.016 2.106 2.106 0 01-.882 1.755c-.58.448-1.291.69-2.023.688-1.22 0-2.309-.61-3.205-1.847l-6.15-8.248v5.574c0 3.02-1.03 4.507-3.095 4.507-2.064 0-3.13-1.487-3.13-4.507V46.48c0-3.016 1.034-4.503 3.13-4.503 2.097 0 3.094 1.487 3.094 4.503l-.023 11.34zm19.21 3.551a6.157 6.157 0 00.993 3.552 3.495 3.495 0 003.09 1.68 3.56 3.56 0 003.13-1.68 6.881 6.881 0 00-.036-7.061 3.75 3.75 0 00-6.225-.042 6.189 6.189 0 00-.951 3.551zm-6.377.079A11.337 11.337 0 0170 53.567a9.777 9.777 0 017.523-3.168c3.13 0 5.652 1.067 7.564 3.168s2.863 4.738 2.863 7.906c.09 2.881-.92 5.688-2.826 7.85-1.949 2.139-4.507 3.21-7.601 3.21a9.804 9.804 0 01-7.596-3.233 11.138 11.138 0 01-2.864-7.85zM8.047 80.603c.28 0 .527.111.74.334.212.212.318.459.318.739 0 .28-.188.686-.565 1.218l-2.436 3.451v3.407c0 1.132-.401 1.697-1.204 1.697-.802 0-1.203-.566-1.203-1.697v-3.407l-2.45-3.451c-.358-.503-.537-.909-.537-1.218 0-.31.116-.566.348-.769.232-.203.507-.304.827-.304.386 0 .797.31 1.232.928l1.798 2.581 1.827-2.61c.416-.6.85-.899 1.305-.899zm-.036 6.757c0-1.189.367-2.185 1.102-2.987.744-.812 1.701-1.218 2.87-1.218 1.19 0 2.147.401 2.872 1.204.725.802 1.087 1.802 1.087 3.001 0 1.189-.357 2.18-1.073 2.972-.744.813-1.706 1.219-2.885 1.219-1.17 0-2.132-.411-2.886-1.233-.725-.793-1.087-1.779-1.087-2.958zm2.421-.029c0 .532.126.981.377 1.349.28.425.672.637 1.175.637.512 0 .908-.212 1.189-.637.241-.358.362-.808.362-1.349 0-.522-.125-.967-.377-1.334-.28-.425-.672-.638-1.174-.638-.513 0-.909.208-1.19.624-.24.367-.362.816-.362 1.348zm6.926.783v-3.118c0-1.13.391-1.696 1.174-1.696.783 0 1.175.566 1.175 1.697v2.638c0 .522.068.914.203 1.175.184.358.517.537 1 .537.484 0 .817-.18 1-.537.136-.261.204-.653.204-1.175v-2.639c0-1.13.391-1.696 1.174-1.696.774 0 1.16.566 1.16 1.697v3.117c0 1.121-.309 1.977-.928 2.566-.609.58-1.479.87-2.61.87-1.13 0-2.005-.29-2.624-.87-.619-.59-.928-1.445-.928-2.566zm8.943 1.595v-4.713c0-1.13.396-1.696 1.189-1.696.464 0 .836.246 1.116.74.484-.523 1.01-.784 1.58-.784.34 0 .624.112.856.334.232.213.348.488.348.826 0 .368-.198.663-.594.885-.049.02-.44.17-1.175.45-.464.183-.744.391-.84.623-.078.184-.117.483-.117.899v2.436c0 1.14-.391 1.711-1.174 1.711-.793 0-1.19-.57-1.19-1.711zm13.767.029c0 1.14-.4 1.711-1.203 1.711-.802 0-1.204-.57-1.204-1.711v-7.424c0-1.14.402-1.711 1.204-1.711.802 0 1.203.57 1.203 1.711v7.424zm2.084-.029v-4.713c0-1.13.397-1.696 1.19-1.696.463 0 .835.246 1.116.74.444-.494 1.13-.74 2.059-.74 1.904 0 2.856 1.015 2.856 3.045v3.364c0 1.14-.391 1.711-1.174 1.711-.783 0-1.175-.57-1.175-1.711v-2.654c0-.58-.067-.99-.203-1.232-.183-.348-.536-.522-1.058-.522-.832 0-1.247.575-1.247 1.725v2.683c0 1.14-.392 1.711-1.175 1.711-.792 0-1.189-.57-1.189-1.711zm9.548-4.147c-.938 0-1.407-.338-1.407-1.015 0-.648.47-.996 1.407-1.044 0-.947.02-1.518.058-1.711.145-.686.517-1.03 1.116-1.03.59 0 .957.344 1.102 1.03.04.193.059.764.059 1.711 1.13 0 1.696.348 1.696 1.044 0 .677-.566 1.015-1.697 1.015v4.147c0 1.14-.386 1.711-1.16 1.711-.782 0-1.174-.57-1.174-1.711v-4.147zm6.754 2.45c.048.455.237.803.566 1.044.328.242.73.363 1.203.363.396 0 .875-.126 1.436-.377.56-.261.908-.392 1.044-.392.618 0 .928.305.928.914 0 .232-.087.464-.261.696-.31.425-.803.75-1.48.971-.57.194-1.164.29-1.783.29-1.16 0-2.127-.396-2.9-1.189-.773-.802-1.16-1.788-1.16-2.957 0-1.16.367-2.151 1.102-2.973.744-.822 1.692-1.233 2.842-1.233.57 0 1.088.107 1.552.32a4.04 4.04 0 011.638 1.377c.425.609.638 1.271.638 1.987 0 .386-.14.681-.42.884-.242.184-.561.276-.957.276h-3.988zm-.029-1.537h3.089a1.431 1.431 0 00-.479-1 1.455 1.455 0 00-1.03-.391c-.415 0-.763.13-1.043.391-.28.251-.46.585-.537 1zm6.744 3.234v-4.713c0-1.13.396-1.696 1.189-1.696.464 0 .836.246 1.116.74.484-.523 1.01-.784 1.58-.784.34 0 .624.112.856.334.232.213.348.488.348.826 0 .368-.198.663-.594.885-.049.02-.44.17-1.175.45-.464.183-.744.391-.84.623-.078.184-.117.483-.117.899v2.436c0 1.14-.391 1.711-1.174 1.711-.793 0-1.19-.57-1.19-1.711zm5.94 0v-4.713c0-1.13.396-1.696 1.189-1.696.464 0 .836.246 1.116.74.445-.494 1.131-.74 2.06-.74 1.903 0 2.856 1.015 2.856 3.045v3.364c0 1.14-.392 1.711-1.175 1.711s-1.174-.57-1.174-1.711v-2.654c0-.58-.068-.99-.203-1.232-.184-.348-.537-.522-1.059-.522-.831 0-1.247.575-1.247 1.725v2.683c0 1.14-.391 1.711-1.174 1.711-.793 0-1.19-.57-1.19-1.711zm11.055-1.697c.049.455.237.803.566 1.044.329.242.73.363 1.203.363.397 0 .875-.126 1.436-.377.56-.261.909-.392 1.044-.392.619 0 .928.305.928.914 0 .232-.087.464-.261.696-.31.425-.802.75-1.48.971-.57.194-1.164.29-1.783.29-1.16 0-2.126-.396-2.9-1.189-.773-.802-1.16-1.788-1.16-2.957 0-1.16.368-2.151 1.102-2.973.745-.822 1.692-1.233 2.842-1.233.57 0 1.088.107 1.552.32a4.04 4.04 0 011.638 1.377c.426.609.638 1.271.638 1.987 0 .386-.14.681-.42.884-.242.184-.56.276-.957.276h-3.988zm-.029-1.537h3.089a1.431 1.431 0 00-.479-1 1.455 1.455 0 00-1.03-.391c-.415 0-.763.13-1.043.391-.28.251-.46.585-.537 1zm7.223-.913c-.938 0-1.407-.338-1.407-1.015 0-.648.469-.996 1.407-1.044 0-.947.019-1.518.058-1.711.145-.686.517-1.03 1.116-1.03.59 0 .957.344 1.102 1.03.039.193.058.764.058 1.711 1.131 0 1.697.348 1.697 1.044 0 .677-.566 1.015-1.697 1.015v4.147c0 1.14-.387 1.711-1.16 1.711-.783 0-1.174-.57-1.174-1.711v-4.147zm11.493-2.581c-.87 0-1.412-.024-1.624-.072-.657-.136-.986-.484-.986-1.044 0-.754.575-1.131 1.725-1.131h4.191c1.141 0 1.711.377 1.711 1.13 0 .561-.329.91-.986 1.044-.213.049-.754.073-1.624.073v6.757c0 1.14-.401 1.711-1.204 1.711-.802 0-1.203-.57-1.203-1.711v-6.757zm6.659 5.032c.048.454.237.802.565 1.043.329.242.73.363 1.204.363.396 0 .875-.126 1.435-.377.561-.261.909-.392 1.044-.392.619 0 .928.305.928.914 0 .232-.087.464-.261.696-.309.425-.802.75-1.479.971-.57.194-1.164.29-1.783.29-1.16 0-2.127-.396-2.9-1.189-.773-.802-1.16-1.788-1.16-2.957 0-1.16.367-2.151 1.102-2.973.744-.822 1.692-1.233 2.842-1.233.57 0 1.087.107 1.551.32a4.04 4.04 0 011.639 1.377 3.4 3.4 0 01.638 1.987c0 .386-.14.681-.421.884-.241.184-.56.276-.957.276h-3.987zm-.029-1.538h3.088a1.43 1.43 0 00-.478-1 1.455 1.455 0 00-1.03-.391c-.415 0-.763.13-1.044.391-.28.251-.459.585-.536 1zm6.744 3.234v-4.713c0-1.13.396-1.696 1.189-1.696.464 0 .836.246 1.116.74.483-.523 1.01-.784 1.581-.784.338 0 .623.112.855.334.232.213.348.488.348.826 0 .368-.198.663-.594.885-.049.02-.44.17-1.175.45-.464.183-.744.391-.841.623-.077.184-.116.483-.116.899v2.436c0 1.14-.391 1.711-1.174 1.711-.793 0-1.189-.57-1.189-1.711zm5.94 0v-4.713c0-1.13.396-1.696 1.189-1.696.464 0 .836.246 1.116.74.483-.523 1.01-.784 1.581-.784.338 0 .623.112.855.334.232.213.348.488.348.826 0 .368-.198.663-.594.885-.049.02-.44.17-1.175.45-.464.183-.744.391-.841.623-.077.184-.116.483-.116.899v2.436c0 1.14-.391 1.711-1.174 1.711-.793 0-1.189-.57-1.189-1.711zm8.361 0c0 1.14-.387 1.711-1.16 1.711-.783 0-1.175-.57-1.175-1.711v-4.713c0-1.13.392-1.696 1.175-1.696.773 0 1.16.566 1.16 1.697v4.712zm-2.523-8.395c0-.377.13-.696.391-.957.271-.261.595-.392.972-.392s.691.13.942.391c.261.262.392.58.392.958 0 .377-.131.696-.392.957a1.253 1.253 0 01-.942.391c-.387 0-.711-.126-.972-.377a1.319 1.319 0 01-.391-.971zm4.962 4.248c-.937 0-1.406-.338-1.406-1.015 0-.648.469-.996 1.406-1.044 0-.947.02-1.518.058-1.711.145-.686.517-1.03 1.117-1.03.589 0 .957.344 1.102 1.03.038.193.058.764.058 1.711 1.131 0 1.696.348 1.696 1.044 0 .677-.565 1.015-1.696 1.015v4.147c0 1.14-.387 1.711-1.16 1.711-.783 0-1.175-.57-1.175-1.711v-4.147zm4.347 1.798c0-1.189.368-2.185 1.102-2.987.745-.812 1.702-1.218 2.871-1.218 1.189 0 2.146.401 2.871 1.204.725.802 1.088 1.802 1.088 3.001 0 1.189-.358 2.18-1.073 2.972-.745.813-1.706 1.219-2.886 1.219-1.169 0-2.131-.411-2.885-1.233-.725-.793-1.088-1.779-1.088-2.958zm2.422-.029c0 .532.125.981.377 1.349.28.425.672.637 1.174.637.513 0 .909-.212 1.189-.637.242-.358.363-.808.363-1.349 0-.522-.126-.967-.377-1.334-.281-.425-.672-.638-1.175-.638-.512 0-.908.208-1.189.624-.241.367-.362.816-.362 1.348zm6.969 2.378v-4.713c0-1.13.396-1.696 1.189-1.696.464 0 .836.246 1.116.74.484-.523 1.011-.784 1.581-.784.338 0 .623.112.855.334.232.213.348.488.348.826 0 .368-.198.663-.594.885-.048.02-.44.17-1.175.45-.464.183-.744.391-.841.623-.077.184-.116.483-.116.899v2.436c0 1.14-.391 1.711-1.174 1.711-.793 0-1.189-.57-1.189-1.711zm11.276-6.409c.773 0 1.16.372 1.16 1.117 0 .241-.063.512-.189.811l-3.581 8.483c-.271.638-.614.957-1.03.957-.348 0-.628-.102-.841-.305-.212-.203-.319-.478-.319-.826 0-.232.068-.498.203-.797l.957-2.103-2.363-5.525a1.64 1.64 0 01-.131-.652c0-.329.107-.604.319-.826.223-.223.498-.334.827-.334.338 0 .604.111.797.334.116.135.247.4.392.797l1.334 3.538 1.435-3.741c.242-.619.585-.928 1.03-.928zM91.27 46.479c0-3.016 1.034-4.503 3.094-4.503 2.06 0 3.056 1.487 3.056 4.503v21.154c0 3.02-1.034 4.507-3.056 4.507-2.023 0-3.095-1.487-3.095-4.507V46.48zm10.542 21.154V55.225c0-2.979 1.03-4.466 3.131-4.466 1.22 0 2.212.647 2.937 1.944 1.187-1.297 2.979-1.944 5.426-1.944 5.001 0 7.523 2.67 7.523 8.017v8.857c0 3.02-1.035 4.507-3.094 4.507-2.06 0-3.094-1.487-3.094-4.507v-6.987c0-1.528-.189-2.595-.536-3.232-.494-.924-1.413-1.386-2.77-1.386-2.18 0-3.288 1.524-3.288 4.544v7.061c0 3.02-1.03 4.507-3.09 4.507-2.059 0-3.131-1.487-3.131-4.507m28.243-9.132h8.132a3.87 3.87 0 00-1.224-2.632 4.239 4.239 0 00-5.495-.037 4.651 4.651 0 00-1.413 2.67zm.073 4.05a3.704 3.704 0 001.492 2.77c.92.664 2.035 1 3.168.957a9.406 9.406 0 003.782-1.03c1.487-.651 2.406-.993 2.748-.993 1.644 0 2.442.799 2.442 2.406a3.054 3.054 0 01-.683 1.847 7.462 7.462 0 01-3.898 2.558c-1.514.506-3.1.763-4.696.762a10.187 10.187 0 01-7.638-3.168 10.726 10.726 0 01-3.052-7.753 11.336 11.336 0 012.937-7.85 10.224 10.224 0 0111.544-2.406 10.46 10.46 0 014.313 3.63 9.04 9.04 0 011.681 5.227 2.709 2.709 0 01-1.108 2.332 4.04 4.04 0 01-2.521.725l-10.511-.014zm18.168-5.839c-2.48 0-3.695-.877-3.695-2.67 0-1.717 1.224-2.636 3.695-2.77a33.843 33.843 0 01.152-4.502c.383-1.797 1.385-2.716 2.941-2.716 1.557 0 2.522.924 2.905 2.716.151 1.495.202 3 .152 4.502 2.981 0 4.469.924 4.466 2.77 0 1.793-1.487 2.67-4.466 2.67v10.921c0 3.02-1.034 4.507-3.057 4.507-2.022 0-3.093-1.487-3.093-4.507V56.712z"/></svg><svg viewBox="0 0 23 23" id="mail" xmlns="http://www.w3.org/2000/svg"><path d="M17.969 12.938l-1.017 1.016 1.855 1.858h-5.87a2.875 2.875 0 100 5.75h1.438v-1.437h-1.438a1.438 1.438 0 010-2.875h5.87l-1.856 1.86 1.018 1.015 3.593-3.594-3.593-3.593zM7.188 15.813H2.875l-.002-10.85 8.218 5.69a.719.719 0 00.818 0l8.216-5.686V11.5h1.438V4.312a1.44 1.44 0 00-1.438-1.437H2.875A1.437 1.437 0 001.437 4.31v11.503a1.44 1.44 0 001.438 1.437h4.313v-1.438zm11.355-11.5L11.5 9.188 4.457 4.312h14.086z"/></svg><svg viewBox="0 0 26 26" id="map" xmlns="http://www.w3.org/2000/svg"><path d="M13 4.854a4.139 4.139 0 100 8.277 4.139 4.139 0 000-8.277zm0 6.832a2.694 2.694 0 112.694-2.694A2.694 2.694 0 0113 11.678v.008z"/><path d="M13 1.444a8.515 8.515 0 00-8.508 8.472c0 3.373 1.892 6.197 3.28 8.255l.252.376c1.38 2 2.86 3.927 4.434 5.777l.55.643.548-.643a72.077 72.077 0 004.435-5.777l.252-.383c1.38-2.059 3.272-4.875 3.272-8.248A8.515 8.515 0 0013 1.444zm4.037 15.89l-.26.382A58.713 58.713 0 0113 22.699c-.852-1.032-2.535-3.12-3.777-4.983l-.253-.383c-1.278-1.906-3.033-4.514-3.033-7.446a7.063 7.063 0 0114.126 0c0 2.961-1.747 5.568-3.026 7.446z"/></svg><svg viewBox="0 0 54 55" id="map-1" xmlns="http://www.w3.org/2000/svg"><path d="M27 10.63c-1.7 0-3.362.507-4.775 1.457a8.63 8.63 0 00-3.166 3.876 8.679 8.679 0 00-.49 4.991 8.652 8.652 0 002.353 4.423 8.581 8.581 0 004.401 2.364 8.555 8.555 0 004.966-.492 8.605 8.605 0 003.857-3.181 8.669 8.669 0 00-1.069-10.907A8.573 8.573 0 0027 10.63zm0 14.262a5.576 5.576 0 01-3.109-.948 5.618 5.618 0 01-2.06-2.523 5.649 5.649 0 011.213-6.128 5.569 5.569 0 016.097-1.219 5.601 5.601 0 012.51 2.07c.616.926.944 2.013.944 3.125a5.637 5.637 0 01-1.644 3.966A5.58 5.58 0 0127 24.877v.015z"/><path d="M44.655 20.836a11.182 11.182 0 01-3-.497v.86c0 6.12-3.63 11.562-6.285 15.541l-.54.8c-2.58 3.889-6 8.245-7.845 10.401-1.77-2.156-5.265-6.512-7.845-10.402l-.51-.859c-2.655-3.98-6.3-9.422-6.3-15.542a14.782 14.782 0 011.916-7.228 14.694 14.694 0 015.201-5.35 14.6 14.6 0 0114.393-.387c.12-1.036.382-2.05.78-3.015a17.55 17.55 0 00-17.072.971 17.677 17.677 0 00-6.049 6.466 17.783 17.783 0 00-2.17 8.603c0 7.04 3.93 12.934 6.81 17.23l.526.785a150.08 150.08 0 009.21 12.06l1.14 1.341 1.14-1.341a150.391 150.391 0 009.21-12.06l.525-.8c2.865-4.295 6.795-10.175 6.795-17.215a2.942 2.942 0 01-.03-.362z"/><path d="M45 17.083c4.142 0 7.5-3.375 7.5-7.538S49.142 2.008 45 2.008c-4.142 0-7.5 3.374-7.5 7.537s3.358 7.538 7.5 7.538z"/></svg><svg viewBox="0 0 23 28" id="map-form" xmlns="http://www.w3.org/2000/svg"><g clip-path="url(#asa)"><path d="M9.436 5.227c-.854 0-1.689.261-2.4.75a4.43 4.43 0 00-1.59 2 4.59 4.59 0 00-.245 2.576 4.503 4.503 0 001.182 2.282 4.278 4.278 0 002.21 1.22 4.194 4.194 0 002.495-.254 4.35 4.35 0 001.938-1.642 4.559 4.559 0 00.728-2.476 4.53 4.53 0 00-1.265-3.151 4.25 4.25 0 00-3.053-1.305zm0 7.357c-.556 0-1.1-.17-1.562-.489a2.883 2.883 0 01-1.035-1.302 2.988 2.988 0 01-.16-1.676c.109-.562.376-1.08.77-1.485a2.785 2.785 0 011.438-.794 2.73 2.73 0 011.624.165c.514.22.953.591 1.262 1.069.309.477.474 1.038.474 1.611a2.949 2.949 0 01-.826 2.047 2.767 2.767 0 01-1.985.847v.007z"/><path d="M18.305 10.492a5.483 5.483 0 01-1.507-.256v.443c0 3.158-1.823 5.965-3.157 8.019l-.271.412a63.093 63.093 0 01-3.942 5.367c-.889-1.113-2.645-3.36-3.94-5.367l-.257-.443c-1.334-2.054-3.165-4.861-3.165-8.02A7.788 7.788 0 013.03 6.92a7.493 7.493 0 012.613-2.76 7.194 7.194 0 013.59-1.08 7.176 7.176 0 013.64.88c.06-.535.192-1.058.392-1.556a8.619 8.619 0 00-8.576.501 9.028 9.028 0 00-3.04 3.336A9.372 9.372 0 00.56 10.68c0 3.632 1.974 6.673 3.421 8.89l.264.404a77.264 77.264 0 004.627 6.223l.572.692.573-.692a77.409 77.409 0 004.627-6.223l.264-.412c1.44-2.217 3.413-5.25 3.413-8.882-.007-.062-.015-.125-.015-.187z"/><path d="M18.479 8.556c2.08 0 3.767-1.742 3.767-3.89 0-2.147-1.687-3.888-3.767-3.888-2.081 0-3.768 1.74-3.768 3.889 0 2.147 1.687 3.889 3.768 3.889z"/></g><defs><clipPath id="asa"><path d="M0 0h23v28H0z"/></clipPath></defs></svg><svg viewBox="0 0 15 21" id="num" xmlns="http://www.w3.org/2000/svg"><path d="M11.438 1.313a1.313 1.313 0 011.312 1.312v15.75a1.313 1.313 0 01-1.313 1.313H3.564a1.313 1.313 0 01-1.313-1.313V2.625a1.313 1.313 0 011.313-1.313h7.874zM3.561 0A2.625 2.625 0 00.938 2.625v15.75A2.625 2.625 0 003.563 21h7.874a2.625 2.625 0 002.626-2.625V2.625A2.625 2.625 0 0011.437 0H3.564z"/><path d="M7.5 18.375a1.313 1.313 0 100-2.625 1.313 1.313 0 000 2.625z"/></svg><svg viewBox="0 0 16 24" id="phone" xmlns="http://www.w3.org/2000/svg"><path d="M6.58 17.96a.725.725 0 000 1.45h2.9a.725.725 0 000-1.45h-2.9z"/><path d="M3.68.56a2.9 2.9 0 00-2.9 2.9v17.4a2.9 2.9 0 002.9 2.9h8.7a2.9 2.9 0 002.9-2.9V3.46a2.9 2.9 0 00-2.9-2.9h-8.7zm-1.45 2.9a1.45 1.45 0 011.45-1.45h8.7a1.45 1.45 0 011.45 1.45v17.4a1.45 1.45 0 01-1.45 1.45h-8.7a1.45 1.45 0 01-1.45-1.45V3.46z"/></svg><svg viewBox="0 0 12 18" id="phone-2" xmlns="http://www.w3.org/2000/svg"><path d="M4.511 13.562a.55.55 0 01.39-.162h2.2a.55.55 0 110 1.1H4.9a.55.55 0 01-.39-.938z"/><path fill-rule="evenodd" clip-rule="evenodd" d="M1.144.845A2.2 2.2 0 012.7.2h6.6a2.2 2.2 0 012.2 2.2v13.2a2.2 2.2 0 01-2.2 2.2H2.7a2.2 2.2 0 01-2.2-2.2V2.4A2.2 2.2 0 011.144.845zm.778.777A1.1 1.1 0 001.6 2.4v13.2a1.1 1.1 0 001.1 1.1h6.6a1.1 1.1 0 001.1-1.1V2.4a1.1 1.1 0 00-1.1-1.1H2.7a1.1 1.1 0 00-.778.322z"/></svg><svg viewBox="0 0 14 15" id="popup" xmlns="http://www.w3.org/2000/svg"><path d="M12.25 1.788H4.375a.878.878 0 00-.875.875v6.125a.878.878 0 00.875.875h7.875a.878.878 0 00.875-.875V2.663a.878.878 0 00-.875-.875zm0 7H4.375V2.663h7.875v6.125z"/><path d="M7.875 11.414H1.75V7.038h.875v-.875H1.75a.878.878 0 00-.875.875v4.376a.877.877 0 00.875.875h6.125a.877.877 0 00.875-.875v-.875h-.875v.875z"/></svg><svg viewBox="0 0 22 23" id="speed" xmlns="http://www.w3.org/2000/svg"><path d="M9.437 11.04c0 .961.774 1.74 1.728 1.74a1.72 1.72 0 001.531-.949l.005.005L15.855 6.1l-5.537 3.422.005.005c-.526.299-.886.86-.886 1.511zm8.69-8.297c-1.772-1.56-4.06-2.556-6.673-2.705v2.647c2.178.14 3.462.836 4.75 1.924l1.922-1.866zm1.233 7.472h2.623c-.176-2.635-1.199-4.8-2.786-6.573L17.34 5.501a8.478 8.478 0 012.019 4.714z"/><path d="M19.372 11.532c-.277 4.39-3.887 7.872-8.296 7.872-4.59 0-8.462-3.751-8.462-8.376 0-4.403 3.612-8.005 7.533-8.343V.039C4.483.38 0 5.183 0 11.039c0 6.078 4.976 11 11.007 11 5.852 0 10.714-4.8 10.993-10.507h-2.628z"/></svg><svg viewBox="0 0 25 24" id="tg" xmlns="http://www.w3.org/2000/svg"><path fill-rule="evenodd" clip-rule="evenodd" d="M25 12c0 6.627-5.597 12-12.5 12S0 18.627 0 12 5.597 0 12.5 0 25 5.373 25 12zM12.948 8.859c-1.216.485-3.646 1.49-7.29 3.014-.591.226-.902.447-.93.663-.048.366.43.51 1.077.705.089.027.18.054.274.084.639.199 1.497.432 1.943.441.405.008.857-.152 1.356-.48 3.404-2.207 5.162-3.322 5.272-3.346.078-.017.186-.039.26.024.072.062.065.18.058.212-.048.193-1.917 1.862-2.886 2.726-.302.269-.515.46-.56.504-.097.097-.197.19-.293.279-.594.548-1.037.96.025 1.632.51.323.919.59 1.326.856.445.291.889.581 1.464.943.146.092.285.187.422.28.517.355.983.673 1.558.623.333-.03.68-.331.854-1.23.414-2.126 1.228-6.73 1.417-8.628a2.027 2.027 0 00-.021-.472.5.5 0 00-.18-.325c-.148-.117-.38-.142-.484-.14-.47.008-1.19.249-4.662 1.635z"/></svg><svg viewBox="0 0 25 25" id="viber" xmlns="http://www.w3.org/2000/svg"><path fill-rule="evenodd" clip-rule="evenodd" d="M3.142 2.57C5.554.359 9.867.029 11.874.005c.667-.012 1.082.015 1.082.015 5.59.02 8.093 1.844 8.715 2.417h.013c2.063 1.791 3.206 5.75 2.437 12.033-.683 5.547-4.556 6.523-5.85 6.85a5.624 5.624 0 00-.298.08c-.354.113-3.427.882-7.438.548l-1.458 1.648c-.133.143-.258.284-.377.419-.575.651-1.013 1.147-1.694.932-.667-.207-.63-1.217-.63-1.217v-2.522C.513 19.55.586 13.467.647 10.229c.073-3.251.7-5.88 2.495-7.658zm9.195 2.453a.31.31 0 01.12-.023c1.843 0 3.41.622 4.647 1.83a6.728 6.728 0 011.888 4.96.312.312 0 01-.313.31v.013a.313.313 0 01-.313-.314c-.022-1.936-.575-3.418-1.71-4.52a5.87 5.87 0 00-4.2-1.656.313.313 0 01-.22-.534.311.311 0 01.101-.066zm-4.637.82a.978.978 0 01.639-.127l-.002-.001a.89.89 0 01.525.313 14.051 14.051 0 011.604 2.238c.3.534.105 1.075-.175 1.303l-.586.472c-.301.228-.26.675-.26.675s.867 3.292 4.117 4.122l.013-.007s.436.04.676-.253l.468-.59c.22-.293.76-.468 1.293-.179a14.435 14.435 0 012.239 1.607c.346.29.427.717.187 1.168v.008a4.736 4.736 0 01-.969 1.196c-.316.288-.72.461-1.147.492-.135 0-.268-.02-.415-.064v-.008c-.5-.147-1.335-.5-2.71-1.25a16.147 16.147 0 01-3.313-2.428l-.033-.028-.028-.033-.044-.033-.028-.04a15.914 15.914 0 01-2.418-3.305A14.08 14.08 0 016.08 8.385l-.02-.012a1.33 1.33 0 01-.05-.566c.041-.321.196-.655.481-.984a4.904 4.904 0 011.192-.98H7.7zM13 7.27c-.418 0-.418-.626-.003-.626h.044c1.356.093 2.417.56 3.178 1.395.757.834 1.143 1.876 1.115 3.117a.316.316 0 01-.313.313l-.013-.016a.314.314 0 01-.313-.31 3.642 3.642 0 00-.936-2.677A3.928 3.928 0 0013 7.27zm.49 1.697c-.424-.013-.407-.652.02-.64l.012.002c1.351.072 2.112.858 2.186 2.254a.315.315 0 01-.301.333h-.013a.31.31 0 01-.31-.305c-.065-1.07-.565-1.59-1.595-1.644z"/></svg><svg viewBox="0 0 26 26" id="vk" xmlns="http://www.w3.org/2000/svg"><path d="M13 .52C6.107.52.52 6.107.52 13c0 6.892 5.587 12.48 12.48 12.48 6.893 0 12.48-5.588 12.48-12.48C25.48 6.106 19.893.52 13 .52zm4.8 14.08s1.103 1.09 1.375 1.595c.008.01.012.02.014.026.11.186.137.33.082.438-.09.18-.403.268-.51.276h-1.95c-.135 0-.418-.035-.761-.272-.264-.185-.524-.488-.778-.783-.378-.44-.706-.819-1.036-.819a.399.399 0 00-.123.02c-.25.08-.57.437-.57 1.386 0 .296-.234.466-.399.466h-.893c-.304 0-1.889-.106-3.293-1.587-1.718-1.813-3.265-5.45-3.278-5.485-.098-.235.104-.361.323-.361h1.97c.263 0 .348.16.408.302.07.165.328.821.75 1.56.685 1.203 1.105 1.692 1.442 1.692a.39.39 0 00.18-.047c.44-.244.358-1.81.339-2.136 0-.06-.002-.7-.227-1.007-.16-.222-.435-.307-.601-.338a.716.716 0 01.258-.22c.302-.15.845-.173 1.385-.173h.3c.585.008.736.046.948.1.429.102.438.379.4 1.326-.012.27-.023.574-.023.933 0 .077-.004.16-.004.25-.013.481-.029 1.029.312 1.254a.28.28 0 00.148.043c.118 0 .475 0 1.44-1.655a12.79 12.79 0 00.773-1.657c.02-.033.076-.137.144-.178a.346.346 0 01.161-.037h2.315c.253 0 .425.037.458.135.057.155-.01.626-1.067 2.058l-.472.622c-.958 1.256-.958 1.32.06 2.273z"/></svg><svg viewBox="0 0 24 24" id="wa" xmlns="http://www.w3.org/2000/svg"><path d="M.005 24l1.622-5.962A11.945 11.945 0 010 12C0 5.372 5.372 0 12 0s12 5.372 12 12-5.372 12-12 12a11.945 11.945 0 01-6.036-1.626L.004 24zM7.669 6.37c-.155.01-.306.05-.445.12a1.53 1.53 0 00-.353.273c-.144.136-.225.253-.313.367a3.275 3.275 0 00-.678 2.014c.002.588.156 1.16.396 1.696.49 1.082 1.298 2.228 2.365 3.29.257.256.508.512.778.751a11.339 11.339 0 004.608 2.455l.683.105c.222.012.444-.005.667-.016a2.39 2.39 0 001-.277 5.8 5.8 0 00.459-.264s.052-.034.15-.108c.162-.12.262-.205.396-.346.1-.103.186-.224.252-.362.094-.196.187-.569.226-.88.028-.237.02-.367.016-.447-.004-.129-.111-.262-.228-.318l-.698-.313s-1.044-.455-1.681-.746a.597.597 0 00-.213-.049.579.579 0 00-.453.153v-.003c-.006 0-.087.069-.954 1.12a.42.42 0 01-.442.156 1.7 1.7 0 01-.229-.08c-.149-.062-.2-.086-.302-.13l-.006-.003a7.212 7.212 0 01-1.884-1.2c-.152-.132-.292-.276-.436-.415a7.555 7.555 0 01-1.224-1.521l-.07-.114a1.107 1.107 0 01-.123-.246c-.046-.177.073-.318.073-.318s.292-.32.427-.492a5.39 5.39 0 00.316-.448c.141-.228.186-.462.111-.643A99.892 99.892 0 008.82 6.68c-.071-.16-.281-.275-.472-.298-.065-.007-.13-.015-.194-.02a4.06 4.06 0 00-.484.005v.002z"/></svg></svg>