<svg width="16" height="16" viewBox="0 0 16 16" fill="none" xmlns="http://www.w3.org/2000/svg">
<path d="M7.79497 0C3.48993 0 0 3.48993 0 7.79497C0 12.1 3.48993 15.5899 7.79497 15.5899C12.1 15.5899 15.5899 12.1 15.5899 7.79497C15.5849 3.492 12.0979 0.00501136 7.79497 0Z" fill="#6984F0" fill-opacity="0.103693"/>
<path d="M12.2947 5.32656L7.84835 11.3605C7.74231 11.5012 7.58418 11.5934 7.4095 11.6164C7.23483 11.6393 7.05825 11.5911 6.91945 11.4826L3.7443 8.94407C3.46411 8.71985 3.41874 8.31095 3.64296 8.03076C3.86718 7.75058 4.27608 7.70521 4.55627 7.92943L7.20396 10.0477L11.2489 4.5581C11.3815 4.35907 11.6128 4.24902 11.8509 4.27166C12.0891 4.2943 12.2955 4.44597 12.3882 4.66644C12.481 4.88691 12.445 5.14051 12.2947 5.32656Z" fill="#6984F0"/>
</svg>
