<svg width="19" height="19" viewBox="0 0 19 19" fill="none" xmlns="http://www.w3.org/2000/svg">
<path d="M10.7926 9.49952L18.3917 1.90035C18.5419 1.72499 18.6204 1.49942 18.6115 1.26872C18.6025 1.03802 18.5069 0.819173 18.3437 0.65592C18.1804 0.492666 17.9616 0.397028 17.7309 0.388117C17.5002 0.379206 17.2746 0.457678 17.0992 0.607852L9.50006 8.20702L1.90089 0.598686C1.72828 0.426074 1.49417 0.329102 1.25006 0.329102C1.00595 0.329102 0.771835 0.426074 0.599223 0.598686C0.426612 0.771297 0.329639 1.00541 0.329639 1.24952C0.329639 1.49363 0.426612 1.72774 0.599223 1.90035L8.20756 9.49952L0.599223 17.0987C0.503265 17.1809 0.42533 17.282 0.370309 17.3957C0.315287 17.5094 0.284368 17.6333 0.279492 17.7596C0.274615 17.8858 0.295887 18.0117 0.341972 18.1293C0.388057 18.2469 0.457961 18.3538 0.547294 18.4431C0.636628 18.5324 0.743463 18.6024 0.861094 18.6484C0.978725 18.6945 1.10461 18.7158 1.23086 18.7109C1.3571 18.706 1.48097 18.6751 1.5947 18.6201C1.70842 18.5651 1.80955 18.4871 1.89172 18.3912L9.50006 10.792L17.0992 18.3912C17.2746 18.5414 17.5002 18.6198 17.7309 18.6109C17.9616 18.602 18.1804 18.5064 18.3437 18.3431C18.5069 18.1799 18.6025 17.961 18.6115 17.7303C18.6204 17.4996 18.5419 17.274 18.3917 17.0987L10.7926 9.49952Z" fill="#263057"/>
</svg>
